<svg width="121" height="100" viewBox="0 0 121 100" fill="none" xmlns="http://www.w3.org/2000/svg">
<path d="M110.93 87.4435C110.93 93.8144 104.92 99.0269 97.5742 99.0269H24.12C16.7745 99.0269 10.7646 93.8144 10.7646 87.4435V38.2142C10.7646 31.8434 16.7745 26.6309 24.12 26.6309H97.5742C104.92 26.6309 110.93 31.8434 110.93 38.2142V87.4435Z" fill="#274835"/>
<path d="M120.947 29.5267C120.947 35.8976 114.937 41.1101 107.592 41.1101H14.1043C6.75892 41.1101 0.749023 35.8976 0.749023 29.5267C0.749023 23.1559 6.75892 17.9434 14.1043 17.9434H107.592C114.937 17.9434 120.947 23.1559 120.947 29.5267Z" fill="#274835"/>
<path d="M10.7646 41.1104H110.93V46.902H10.7646V41.1104Z" fill="#FCAB40"/>
<path d="M64.1863 6.36035H57.5087C51.9762 6.36035 47.4922 10.2495 47.4922 15.0479V99.0273H74.2028V15.0479C74.2028 10.2524 69.7188 6.36035 64.1863 6.36035Z" fill="#FF0000"/>
<path d="M54.1718 17.9423C57.8446 17.9423 58.3888 16.448 55.3772 14.6207L32.9335 0.9929C29.9219 -0.834377 25.9721 -0.0669786 24.1491 2.69855L17.418 12.9151C15.595 15.6806 17.1108 17.9423 20.7835 17.9423H54.1718ZM67.5272 17.9423C63.8544 17.9423 63.3102 16.448 66.3218 14.6207L88.7688 0.9929C91.7771 -0.834377 95.7302 -0.0669786 97.5532 2.69855L104.284 12.9122C106.104 15.6806 104.588 17.9423 100.915 17.9423H67.5272Z" fill="#FF0000"/>
</svg>
