<svg width="31" height="31" viewBox="0 0 31 31" fill="none" xmlns="http://www.w3.org/2000/svg">
<path d="M15.2484 0.625C6.86177 0.625 0 7.47152 0 15.9039C0 23.5281 5.5809 29.8561 12.8696 30.9998V20.3259H8.99654V15.9039H12.8696V12.534C12.8696 8.70664 15.1416 6.60236 18.6335 6.60236C20.2956 6.60236 22.0339 6.89208 22.0339 6.89208V10.6584H20.1126C18.2218 10.6584 17.6271 11.8326 17.6271 13.0372V15.9039H21.8662L21.18 20.3259H17.6271V30.9998C21.2203 30.4323 24.4922 28.5989 26.8523 25.8307C29.2123 23.0624 30.5049 19.5416 30.4967 15.9039C30.4967 7.47152 23.635 0.625 15.2484 0.625Z" fill="#DBAF70"/>
</svg>
