<svg width="31" height="31" viewBox="0 0 31 31" fill="none" xmlns="http://www.w3.org/2000/svg">
<circle cx="15.684" cy="15.8124" r="15.1874" fill="#DBAF70"/>
<path d="M12.0162 7.0791H19.3517C22.1461 7.0791 24.4167 9.34961 24.4167 12.1441V19.4796C24.4167 20.8229 23.883 22.1112 22.9332 23.0611C21.9833 24.011 20.695 24.5446 19.3517 24.5446H12.0162C9.22168 24.5446 6.95117 22.2741 6.95117 19.4796V12.1441C6.95117 10.8008 7.4848 9.51247 8.43467 8.5626C9.38454 7.61273 10.6728 7.0791 12.0162 7.0791ZM11.8415 8.82565C11.0077 8.82565 10.2081 9.15687 9.61851 9.74644C9.02894 10.336 8.69772 11.1357 8.69772 11.9694V19.6543C8.69772 21.3921 10.1037 22.798 11.8415 22.798H19.5263C20.3601 22.798 21.1597 22.4668 21.7493 21.8772C22.3389 21.2877 22.6701 20.488 22.6701 19.6543V11.9694C22.6701 10.2316 21.2641 8.82565 19.5263 8.82565H11.8415ZM20.2686 10.1356C20.5581 10.1356 20.8358 10.2506 21.0405 10.4553C21.2452 10.66 21.3602 10.9376 21.3602 11.2272C21.3602 11.5167 21.2452 11.7943 21.0405 11.999C20.8358 12.2037 20.5581 12.3187 20.2686 12.3187C19.9791 12.3187 19.7014 12.2037 19.4967 11.999C19.292 11.7943 19.177 11.5167 19.177 11.2272C19.177 10.9376 19.292 10.66 19.4967 10.4553C19.7014 10.2506 19.9791 10.1356 20.2686 10.1356ZM15.6839 11.4455C16.8419 11.4455 17.9526 11.9055 18.7714 12.7244C19.5903 13.5432 20.0503 14.6538 20.0503 15.8118C20.0503 16.9699 19.5903 18.0805 18.7714 18.8993C17.9526 19.7182 16.8419 20.1782 15.6839 20.1782C14.5259 20.1782 13.4153 19.7182 12.5964 18.8993C11.7776 18.0805 11.3175 16.9699 11.3175 15.8118C11.3175 14.6538 11.7776 13.5432 12.5964 12.7244C13.4153 11.9055 14.5259 11.4455 15.6839 11.4455ZM15.6839 13.192C14.9891 13.192 14.3227 13.468 13.8314 13.9593C13.3401 14.4507 13.0641 15.117 13.0641 15.8118C13.0641 16.5067 13.3401 17.173 13.8314 17.6643C14.3227 18.1557 14.9891 18.4317 15.6839 18.4317C16.3787 18.4317 17.0451 18.1557 17.5364 17.6643C18.0277 17.173 18.3037 16.5067 18.3037 15.8118C18.3037 15.117 18.0277 14.4507 17.5364 13.9593C17.0451 13.468 16.3787 13.192 15.6839 13.192Z" fill="black"/>
</svg>
