<svg width="32" height="31" viewBox="0 0 32 31" fill="none" xmlns="http://www.w3.org/2000/svg">
<circle cx="16.183" cy="15.8124" r="15.1874" fill="#DBAF70"/>
<path d="M22.2178 7.625C22.6893 7.625 23.1415 7.8123 23.4749 8.1457C23.8083 8.4791 23.9956 8.93128 23.9956 9.40278V21.8472C23.9956 22.3187 23.8083 22.7709 23.4749 23.1043C23.1415 23.4377 22.6893 23.625 22.2178 23.625H9.77338C9.30189 23.625 8.8497 23.4377 8.5163 23.1043C8.18291 22.7709 7.99561 22.3187 7.99561 21.8472V9.40278C7.99561 8.93128 8.18291 8.4791 8.5163 8.1457C8.8497 7.8123 9.30189 7.625 9.77338 7.625H22.2178ZM21.7734 21.4028V16.6917C21.7734 15.9231 21.4681 15.1861 20.9246 14.6426C20.3812 14.0992 19.6441 13.7939 18.8756 13.7939C18.12 13.7939 17.2401 14.2561 16.8134 14.9494V13.9628H14.3334V21.4028H16.8134V17.0206C16.8134 16.3361 17.3645 15.7761 18.0489 15.7761C18.379 15.7761 18.6955 15.9072 18.9289 16.1406C19.1623 16.374 19.2934 16.6905 19.2934 17.0206V21.4028H21.7734ZM11.4445 12.5672C11.8406 12.5672 12.2204 12.4099 12.5004 12.1298C12.7805 11.8498 12.9378 11.4699 12.9378 11.0739C12.9378 10.2472 12.2712 9.57167 11.4445 9.57167C11.0461 9.57167 10.664 9.72994 10.3823 10.0117C10.1005 10.2934 9.94227 10.6755 9.94227 11.0739C9.94227 11.9006 10.6178 12.5672 11.4445 12.5672ZM12.6801 21.4028V13.9628H10.2178V21.4028H12.6801Z" fill="black"/>
</svg>
