<svg width="30" height="29" viewBox="0 0 30 29" fill="none" xmlns="http://www.w3.org/2000/svg">
<path d="M11.0536 28.1376C12.436 28.5552 13.8328 28.8 15.316 28.8C19.1351 28.8 22.7978 27.2829 25.4984 24.5823C28.1989 21.8818 29.716 18.2191 29.716 14.4C29.716 12.509 29.3435 10.6364 28.6199 8.88936C27.8962 7.14227 26.8355 5.55483 25.4984 4.21766C24.1612 2.8805 22.5737 1.8198 20.8267 1.09613C19.0796 0.372467 17.2071 0 15.316 0C13.425 0 11.5525 0.372467 9.80537 1.09613C8.05828 1.8198 6.47084 2.8805 5.13368 4.21766C2.43315 6.91819 0.916016 10.5809 0.916016 14.4C0.916016 20.52 4.76081 25.776 10.1896 27.8496C10.06 26.7264 9.93041 24.8688 10.1896 23.5872L11.8456 16.4736C11.8456 16.4736 11.428 15.6384 11.428 14.3136C11.428 12.3264 12.6664 10.8432 14.0776 10.8432C15.316 10.8432 15.892 11.7504 15.892 12.9168C15.892 14.1552 15.0712 15.9264 14.6536 17.6256C14.4088 19.0368 15.4024 20.2752 16.8424 20.2752C19.4056 20.2752 21.3928 17.5392 21.3928 13.68C21.3928 10.224 18.916 7.8624 15.3592 7.8624C11.2984 7.8624 8.90802 10.8864 8.90802 14.0688C8.90802 15.3072 9.31122 16.56 9.97362 17.3808C10.1032 17.4672 10.1032 17.5824 10.06 17.7984L9.64242 19.368C9.64242 19.6128 9.48402 19.6992 9.23922 19.5264C7.39602 18.72 6.33042 16.0992 6.33042 13.9824C6.33042 9.432 9.55602 5.2992 15.7768 5.2992C20.7304 5.2992 24.5896 8.856 24.5896 13.5792C24.5896 18.5328 21.5224 22.5072 17.1304 22.5072C15.7336 22.5072 14.3656 21.7584 13.876 20.88L12.9112 24.2928C12.58 25.5312 11.6728 27.1872 11.0536 28.1808V28.1376Z" fill="#DBAF70"/>
</svg>
