<svg width="31" height="31" viewBox="0 0 31 31" fill="none" xmlns="http://www.w3.org/2000/svg">
<circle cx="15.8085" cy="15.8124" r="15.1874" fill="#DBAF70"/>
<path d="M21.8992 10.6357C21.7845 10.5764 21.6728 10.5114 21.5645 10.4409C21.2498 10.2328 20.9612 9.98765 20.705 9.71066C20.064 8.97721 19.8246 8.23315 19.7364 7.71219H19.74C19.6663 7.27978 19.6968 7 19.7014 7H16.7818V18.2896C16.7818 18.4411 16.7818 18.5909 16.7754 18.739C16.7754 18.7574 16.7736 18.7744 16.7725 18.7942C16.7725 18.8024 16.7725 18.8109 16.7708 18.8194C16.7708 18.8215 16.7708 18.8236 16.7708 18.8257C16.74 19.2308 16.6102 19.6221 16.3927 19.9652C16.1752 20.3083 15.8767 20.5927 15.5235 20.7934C15.1553 21.0028 14.739 21.1127 14.3155 21.1121C12.9552 21.1121 11.8527 20.0029 11.8527 18.6331C11.8527 17.2632 12.9552 16.154 14.3155 16.154C14.573 16.1538 14.8289 16.1943 15.0737 16.2741L15.0772 13.3014C14.334 13.2054 13.5789 13.2644 12.8597 13.4748C12.1404 13.6853 11.4726 14.0425 10.8983 14.5239C10.3951 14.9611 9.97199 15.4828 9.64813 16.0655C9.52489 16.278 9.05989 17.1318 9.00358 18.5176C8.96817 19.3042 9.20438 20.1191 9.317 20.4559V20.463C9.38783 20.6613 9.6623 21.3381 10.1096 21.9086C10.4703 22.3663 10.8964 22.7683 11.3743 23.1017V23.0947L11.3813 23.1017C12.7947 24.0622 14.3619 23.9992 14.3619 23.9992C14.6331 23.9882 15.5419 23.9992 16.5739 23.5101C17.7185 22.9679 18.3701 22.1601 18.3701 22.1601C18.7864 21.6774 19.1174 21.1273 19.349 20.5334C19.6132 19.839 19.7014 19.006 19.7014 18.6731V12.6837C19.7368 12.705 20.2085 13.017 20.2085 13.017C20.2085 13.017 20.8881 13.4526 21.9484 13.7363C22.7091 13.9381 23.7341 13.9806 23.7341 13.9806V11.0823C23.3749 11.1212 22.6458 11.0079 21.8992 10.6357Z" fill="black"/>
</svg>
