<svg width="31" height="31" viewBox="0 0 31 31" fill="none" xmlns="http://www.w3.org/2000/svg">
<circle cx="15.4335" cy="15.8124" r="15.1874" fill="#DBAF70"/>
<path d="M13.8726 19L19.0626 16L13.8726 13V19ZM25.4326 11.17C25.5626 11.64 25.6526 12.27 25.7126 13.07C25.7826 13.87 25.8126 14.56 25.8126 15.16L25.8726 16C25.8726 18.19 25.7126 19.8 25.4326 20.83C25.1826 21.73 24.6026 22.31 23.7026 22.56C23.2326 22.69 22.3726 22.78 21.0526 22.84C19.7526 22.91 18.5626 22.94 17.4626 22.94L15.8726 23C11.6826 23 9.07256 22.84 8.04256 22.56C7.14256 22.31 6.56256 21.73 6.31256 20.83C6.18256 20.36 6.09256 19.73 6.03256 18.93C5.96256 18.13 5.93256 17.44 5.93256 16.84L5.87256 16C5.87256 13.81 6.03256 12.2 6.31256 11.17C6.56256 10.27 7.14256 9.69 8.04256 9.44C8.51256 9.31 9.37256 9.22 10.6926 9.16C11.9926 9.09 13.1826 9.06 14.2826 9.06L15.8726 9C20.0626 9 22.6726 9.16 23.7026 9.44C24.6026 9.69 25.1826 10.27 25.4326 11.17Z" fill="black"/>
</svg>
